<?xml version="1.0" encoding="UTF-8" standalone="no"?>
<svg
   xmlns:dc="http://purl.org/dc/elements/1.1/"
   xmlns:cc="http://creativecommons.org/ns#"
   xmlns:rdf="http://www.w3.org/1999/02/22-rdf-syntax-ns#"
   xmlns:svg="http://www.w3.org/2000/svg"
   xmlns="http://www.w3.org/2000/svg"
   id="svg4"
   version="1.1"
   viewBox="0 0 290 90"
   height="90"
   width="290">
  <metadata
     id="metadata10">
    <rdf:RDF>
      <cc:Work
         rdf:about="">
        <dc:format>image/svg+xml</dc:format>
        <dc:type
           rdf:resource="http://purl.org/dc/dcmitype/StillImage" />
      </cc:Work>
    </rdf:RDF>
  </metadata>
  <defs
     id="defs8" />
  <path
     id="path2"
     fill="#00c8ff"
     d="M208.82 71.962c-.192-.766-.384-1.34-.575-2.107-2.68.957-4.406 1.724-7.277 2.107-4.79.766-7.662 0-12.45-.957-4.022-.766-6.512-2.108-9.768-3.256 1.15-3.832 1.915-12.834 2.298-17.24.384-4.405.575-8.81.575-13.215-.19-4.98-.383-9.768-.958-14.174-.957-4.212-2.68-5.936-3.447-6.512-.766-.574-1.725-.766-2.682-.766-1.34 0-2.872.383-4.213.957-1.53.574-2.68 1.34-3.83 2.107-1.15.766-1.725 1.34-1.916 1.724.574.575 2.873 5.173 3.448 9.77s.957 9.575 1.15 14.747c-1.15 1.533-2.683 2.873-4.598 4.022s-3.83 1.915-5.746 1.915c-1.148 0-2.107-.19-2.872-.958-.766-.766-1.15-1.915-1.34-3.638 0-3.066.19-6.322.957-10.152.574-3.64 1.15-7.47 1.724-11.3s.957-7.47.957-10.918c0-3.83-.958-6.895-2.49-9.194-1.725-2.298-4.407-3.448-8.43-3.448-2.49.19-4.98.766-7.276 1.916-2.298 1.15-4.788 2.49-7.277 3.83-2.49 1.533-4.98 2.682-7.853 3.83-2.682 1.15-5.746 1.726-9.002 1.917-2.49 0-5.172-.382-8.236-1.15-2.873-.956-6.13-2.297-9.385-4.596-2.107 1.725-3.255 3.64-4.213 5.364-.957 1.915-1.34 3.638-1.34 5.363 0 2.3.957 4.023 2.682 5.364 1.724 1.34 4.404 2.107 8.235 1.915 3.45-.192 6.705-.958 9.96-2.49s6.513-3.257 9.96-5.173c3.447-1.916 7.086-3.64 10.917-5.172.19 0 .574 0 .766-.19h.766c2.298 0 4.02.765 5.17 2.297s2.11 3.448 2.683 5.937c.574 2.49.766 5.17.766 8.235 0 4.022 0 8.045-.384 11.875-.19 4.022-.383 7.47-.383 10.536 0 2.107.957 3.638 2.49 4.79 1.53.956 3.64 1.53 6.13 1.53 2.872 0 5.746-.766 8.81-2.298 3.065-1.34 5.746-3.448 8.045-6.32 0 2.107-.19 14.556-.383 16.28-.766 0-1.724-.192-2.49-.192h-2.682c-2.682 0-5.363.574-8.236 1.724-2.68 1.15-5.172 2.68-6.894 4.597-1.916 2.107-2.873 4.597-2.873 7.66.19 2.683 1.15 4.598 3.065 5.94 1.915 1.34 4.213 1.914 7.277 1.914 4.98-.19 9.194-1.34 12.45-3.638 3.256-2.298 5.937-5.363 7.854-9.194 3.255 1.34 13.215 10.343 22.983 10.152 3.255 0 5.937-1.15 7.47-3.256 1.53-1.916 2.298-4.213 2.107-6.704-.004-.763-.004-1.337-.195-2.104zm-43.863 6.51c-1.15 1.726-2.68 2.683-4.597 2.683-.957 0-1.915-.574-2.68-1.53-.768-.96-1.15-2.11-1.15-3.45s.382-2.49 1.532-3.447c1.15-.957 2.872-1.53 5.554-1.724h2.107c.766 0 1.34.19 2.108.383-.572 2.873-1.532 5.364-2.872 7.086zM97.347 53.575c0-.19-.19-.383.19-.19.958-.575 1.725-1.532 2.49-2.874.768-1.34 1.15-2.87 1.15-4.403s-.382-2.682-1.532-3.64c-1.15-.956-2.872-1.532-5.363-1.724-.766-2.68-1.53-5.554-2.107-8.618l-2.108-9.385-1.53-6.513c-.384-1.15-1.15-2.107-2.49-2.68s-2.683-.958-4.214-1.15c-1.533-.192-2.682-.192-3.448-.192-1.34 0-3.065 1.34-4.98 4.022-1.915 2.49-3.83 5.938-5.746 10.15-2.11 4.214-3.832 8.812-5.555 13.6-1.533 4.79-3.065 9.385-4.022 13.982-.766 0-1.34.19-1.916.19h-1.915c-2.298 0 .383 10.918 2.298 9.96.575-.192 0 1.15 0 1.724.192 1.915.767 3.638 2.3 4.98 1.53 1.34 2.68 2.107 5.745 2.298.19-1.724 3.64-12.257 4.597-15.514 2.49-1.34 4.98-2.3 7.47-3.256 2.3-.957 4.98-1.53 7.662-1.915 2.107 9.194 14.938 6.32 13.023 1.15zm-19.92-7.47c-1.916.957-3.83 1.915-5.937 2.872l4.02-12.066c1.342-4.02 2.874-7.853 4.407-11.492h.383c.767 6.513 1.725 12.45 2.682 18.004-1.724.767-3.64 1.725-5.555 2.683zM88.92 60.087c-1.532-.575-3.64-.19-6.13.766-2.3 1.15-4.406 2.49-6.32 4.406-1.916 1.914-3.64 3.83-5.555 6.128-1.915 2.298-3.83 4.406-6.13 6.512-.19.19-.382.383-.573.383s-.383.19-.574.19c-1.53.575-3.065.575-4.213-.19-1.34-.766-2.49-1.915-3.448-3.447-.383-.383-.574-.767-.766-1.15 0-.19-.19-.383-.19-.574-1.724-3.255-2.873-7.277-3.448-12.45-.766-5.17-1.15-11.11-1.15-17.812-.19-2.49-.19-5.554-.19-8.81 0-3.45 0-7.663-.19-12.834-.192-.574-.767-1.34-1.916-1.915-.958-.573-2.3-1.148-3.64-1.53-1.532-.383-2.872-.574-4.212-.574-1.15 0-1.724 0-2.682.574-2.107 1.15-.957 5.363-.957 6.13.19 5.17-1.724 9.193-2.68 12.257s-1.917 5.554-2.683 7.277c-.574.957-.957 1.915-1.53 2.682-.575.766-.958 1.53-1.534 1.915 0-.382-.19-.765-.383-1.34-.19-.382-.383-1.15-.574-1.915-.19-1.34-.765-3.255-1.34-5.746-.765-2.49-1.34-5.747-2.297-9.77-.575-2.872-1.15-5.362-1.533-7.276-.383-1.916-.957-3.448-1.915-4.406-.957-1.15-2.682-1.725-4.406-1.533-3.832.383-6.513 5.938-4.407 9.194-1.724 7.853-3.448 14.938-4.79 19.92S4.266 53.767 3.5 56.45c-.767 2.49-1.34 4.597-1.725 5.746S1.2 64.494 1.01 65.26v3.256c.19 2.3 1.148 3.83 2.87 4.98 1.726 1.15 3.832 1.725 6.13 2.108s4.214.383 5.938.383h2.681c-1.34-2.682-2.3-5.554-2.873-8.62s-.957-6.128-.957-9.384c-.19-3.256 0-6.32.19-9.385.384-3.065.575-5.937.958-8.428 1.34 4.406 2.49 9.385 4.022 14.748 1.53 5.555 3.064 11.3 4.79 17.62.19.575.956.958 2.297 1.34 1.34.384 2.682.576 4.022.576.382 0 .765-.192 1.148-.192s.575-.19.766-.383c.575-4.98 1.34-9.77 2.3-14.558s1.914-8.81 3.064-12.45c.383 6.895 1.15 13.408 2.107 19.345s1.34 21.45 11.493 22.602c4.596.573 7.66-.192 11.3-3.066 1.915-1.53 2.68-2.873 4.022-4.597s2.872-3.256 4.406-4.79c1.724-1.53 3.447-2.68 5.746-3.638 1.724-.767 3.64-1.15 5.937-1.34s4.98 0 7.853.765c.957-1.724 1.34-3.448 1.53-4.98 0-1.53-.19-2.873-.573-4.022-.578-1.533-1.728-2.682-3.26-3.065zM141.016 39.21c.574-6.894.766-14.557.766-17.43 0-1.53-.383-2.49-1.15-3.064-.573-.574-1.723-.766-2.872-.766s-2.298.19-3.638.574c-1.15.383-2.3.766-3.448 1.34s-2.49 1.15-3.64 1.915c.575 1.915.958 7.66 1.34 12.832.385 3.065.576 5.172.576 7.854 0 4.022-.19 8.045-.383 12.257-.192 4.022-.575 7.854-.958 11.493-1.15-1.725-2.49-4.406-4.023-7.854-1.724-3.448-3.255-7.66-4.79-12.64-1.53-4.98-2.68-10.536-3.637-16.664-.19-.957-.574-1.724-1.533-2.107-.766-.382-1.915-.574-3.255-.574-1.533 0-3.065.192-4.597.767-1.533.574-2.873 1.15-4.213 2.107-2.3 1.15-.19 7.47-.19 7.47 2.106 7.278 3.83 14.175 1.914 22.793-.383 2.49-.766 4.213-1.724 6.13-.957 2.107-2.3 5.937-4.022 7.853 1.34 1.916 4.597 4.79 8.236 4.597 1.915 0 3.064-.383 4.79-1.53 4.02-2.683 3.063-10.343 2.87-12.068-.19-1.15-1.914-11.875-1.723-13.598 2.682 4.98 5.363 10.15 8.045 16.088 2.68 5.746 4.79 12.066 6.703 18.58 0 .382.575.765 1.725 1.148 1.34.383 3.065.574 5.555.574 1.15 0 2.298 0 3.638-.19s2.682-.384 4.213-.767c-.956-1.724-1.723-4.022-2.297-6.512-.383-2.682-.766-5.364-.766-8.62-.192-5.17.19-10.725.766-16.28.574-5.748 1.15-9.58 1.724-15.707zM231.994 71.004c-3.065-4.406-7.66-13.6-9.768-20.878 1.15.19 2.49.383 3.64.767 2.49.766 5.17 1.915 7.852 3.638 2.108-1.914 3.64-3.83 4.597-5.745 1.15-1.915 1.533-3.83 1.533-5.554 0-2.107-.958-4.02-2.873-5.362s-4.98-1.916-9.002-1.916c-2.107 0-4.213.383-6.13.958-.956.19-1.915.574-2.872.957-.765-2.682-1.53-5.554-2.106-8.62l-2.108-9.384-1.53-6.512c-.384-1.148-1.15-2.107-2.49-2.68s-2.683-.958-4.214-1.15c-1.533-.19-2.682-.19-3.448-.19-1.34 0-3.065 1.34-4.98 4.02-1.916 2.49-3.83 5.938-5.746 10.152-2.108 4.213-3.83 8.81-5.554 13.6-1.725 4.788-5.747 15.32-5.555 26.047.19 2.107.766 3.638 2.298 4.98 1.34 1.34 3.64 2.107 6.703 2.298.192-1.725.768-4.022 1.342-6.704s1.34-5.554 2.298-8.81c2.49-1.34 4.98-2.3 7.47-3.256 2.682-.957 5.364-1.533 8.236-1.916 2.49 11.11 7.47 22.793 10.727 28.54 3.447 5.746 5.746 8.235 11.3 8.427 5.554.382 7.854-2.49 11.876-7.855-4.6-.765-8.43-3.446-11.494-7.852zm-29.496-27.39c-1.915.957-3.83 1.915-5.937 2.873l4.023-12.067c1.53-4.022 2.872-7.854 4.404-11.492h.384c.767 6.512 1.725 12.45 2.682 18.004-1.915.767-3.64 1.725-5.555 2.682zM259.192 75.792c1.915 0 3.447-.957 4.79-2.3 1.34-1.53 2.297-3.254 2.87-5.362s.96-4.406.96-6.512c0-2.3-.576-4.406-1.342-5.937-.957-1.724-2.298-2.49-4.213-2.49-.957 0-1.915.19-2.872.766-.958.574-2.108 1.916-3.256 3.83 0-1.723-.192-3.064-.575-3.83s-.957-1.15-1.916-1.15c-.575 0-1.34.192-2.3.384s-1.914.574-3.255 1.15c.574.765.958 1.532 1.15 2.68s.383 2.3.383 3.64v7.468s0 4.598-.19 6.32c-.192 1.726-.384 3.257-.576 4.598-.19 1.34-.19 2.873-.19 4.597 0 .767.19 1.34.766 1.725.383.383.957.383 1.724.383s1.724-.19 2.682-.573c.957-.383 1.724-.766 2.298-.958.574-.384.957-.575.957-.575-.575-1.15-.767-2.298-.958-3.447-.19-1.34-.383-2.682-.383-4.022v-2.108c.382.383.956.766 1.53.957.38.767 1.147.767 1.913.767zm-3.64-5.363c0-2.874.192-5.173.575-6.896s.957-3.064 1.53-3.83c.575-.767 1.15-1.15 1.726-1.15.19 0 .574.19.574.766.19.574.19 1.15.19 1.916 0 1.34-.19 2.68-.382 4.213-.383 1.53-.957 2.87-1.533 4.02-.766 1.15-1.724 1.916-2.872 2.108l.192-1.148zM280.26 66.982c1.917 0 3.45-.574 4.598-1.34s2.108-1.725 2.873-2.873c.575-1.15.958-2.49.958-3.64 0-1.915-.766-3.638-2.108-4.98-1.34-1.34-3.447-2.107-6.13-2.107-1.914 0-3.638.766-5.362 2.107-1.53 1.34-2.873 2.873-3.83 4.98-.958 1.916-1.532 4.213-1.532 6.32 0 2.682.574 4.98 1.724 6.513.957 1.53 2.3 2.682 3.83 3.448 1.532.575 3.066.958 4.79.958 2.108 0 4.022-.574 5.746-1.53 1.533-.96 2.49-1.917 2.49-3.066 0-.766-.382-1.34-.956-1.915s-1.533-.767-2.682-.958c-.383 1.15-.957 1.915-1.724 2.68-.766.575-1.533.958-2.3.958-1.34 0-2.297-.574-3.064-1.724-.574-1.15-.957-2.49-.957-4.022.574.19 1.34.19 1.916.383.573-.193 1.147-.193 1.723-.193zm.958-9.577c.19 0 .574.19.574.383.19.383.19.766.19 1.15 0 .956-.382 1.915-1.148 3.064-.766.957-2.298 1.724-4.213 2.107.192-1.725.767-3.256 1.534-4.598s1.916-2.108 3.065-2.108zM240.997 71.77c1.53 0 2.68-.574 3.448-1.53.766-.96 1.15-1.917 1.15-3.257 0-1.15-.384-2.108-1.15-2.873-.767-.766-1.916-1.15-3.256-1.15s-2.492.575-3.257 1.725c-.766.958-1.15 2.108-1.15 3.448 0 .957.384 1.916 1.15 2.682.382.574 1.53.956 3.064.956z" />
</svg>
